<?xml version="1.0" standalone="no"?>
<!DOCTYPE svg PUBLIC "-//W3C//DTD SVG 20010904//EN"
 "http://www.w3.org/TR/2001/REC-SVG-20010904/DTD/svg10.dtd">
<svg version="1.0" xmlns="http://www.w3.org/2000/svg"
 width="454.000000pt" height="454.000000pt" viewBox="0 0 454.000000 454.000000"
 preserveAspectRatio="xMidYMid meet">
<metadata>
Created by potrace 1.14, written by Peter Selinger 2001-2017
</metadata>
<g transform="translate(0.000000,454.000000) scale(0.100000,-0.100000)"
fill="#000000" stroke="none">
<path d="M1236 4293 c-4 -5 -11 -8 -14 -9 -46 -3 -222 -141 -222 -172 0 -6 -6
-17 -13 -24 -10 -11 -36 -59 -42 -78 -1 -3 -5 -17 -9 -32 -5 -16 -11 -28 -15
-28 -4 0 -7 -10 -6 -22 1 -13 -2 -31 -7 -41 -8 -16 -20 -102 -22 -159 0 -10
-4 -18 -9 -18 -4 0 -5 -6 -1 -12 11 -18 12 -48 2 -48 -5 0 -6 -6 -2 -12 11
-17 11 -98 1 -98 -5 0 -5 -6 0 -12 9 -16 11 -27 17 -113 3 -38 9 -86 14 -105
5 -19 8 -45 7 -57 -1 -13 1 -23 5 -23 4 0 7 -6 7 -12 1 -18 11 -83 13 -83 1 0
3 -7 5 -16 1 -9 6 -30 9 -46 7 -29 5 -31 -41 -44 -26 -7 -50 -14 -53 -14 -3 0
-9 -3 -15 -6 -5 -4 -35 -14 -65 -24 -30 -10 -61 -22 -67 -28 -7 -5 -13 -7 -13
-4 0 4 -29 -7 -65 -23 -36 -16 -65 -26 -65 -22 0 4 -4 2 -8 -3 -4 -6 -41 -28
-82 -49 -134 -69 -263 -162 -320 -230 -14 -17 -33 -38 -43 -48 -9 -10 -14 -18
-10 -18 5 0 1 -6 -7 -13 -13 -10 -52 -81 -80 -147 -8 -18 -4 -203 5 -247 4
-17 15 -40 24 -50 10 -10 16 -23 14 -29 -2 -6 3 -17 12 -24 8 -7 15 -19 15
-27 0 -8 4 -11 10 -8 5 3 10 -1 10 -9 0 -8 9 -21 20 -29 11 -8 17 -16 14 -20
-3 -3 4 -10 15 -17 13 -6 19 -16 15 -23 -4 -7 -4 -9 0 -5 4 3 17 -2 29 -12 12
-10 33 -28 47 -40 14 -12 37 -29 53 -38 15 -9 27 -20 27 -24 0 -4 7 -8 16 -8
8 0 12 -5 9 -10 -4 -6 -3 -9 2 -8 14 4 53 -13 53 -23 0 -6 4 -8 8 -5 5 3 19
-4 30 -15 12 -11 22 -17 22 -13 0 3 6 1 13 -5 8 -6 17 -8 20 -4 4 3 7 1 7 -5
0 -7 6 -12 14 -12 7 0 19 -6 26 -14 6 -8 17 -13 24 -10 8 3 16 -2 19 -10 4 -9
13 -13 21 -10 9 3 30 -4 47 -17 18 -13 29 -16 24 -8 -5 8 -1 7 12 -4 11 -10
24 -17 29 -15 10 3 66 -17 105 -38 14 -7 28 -11 31 -9 3 3 21 -2 41 -10 21 -8
37 -12 37 -8 0 4 6 -2 14 -13 10 -13 11 -23 4 -31 -6 -7 -7 -13 -3 -13 4 0 2
-6 -4 -13 -6 -8 -8 -17 -4 -20 3 -4 2 -7 -3 -7 -5 0 -10 -10 -10 -22 -1 -13
-5 -39 -9 -58 -4 -19 -7 -51 -8 -70 -1 -19 -6 -38 -10 -41 -9 -6 -18 -103 -20
-211 -1 -38 -6 -68 -10 -68 -5 0 -5 -6 -1 -12 11 -18 12 -48 2 -48 -5 0 -6 -5
-2 -12 4 -6 8 -28 8 -47 0 -20 5 -39 11 -43 6 -5 5 -12 -5 -18 -8 -5 -10 -10
-5 -10 6 0 10 -12 9 -28 -1 -15 3 -37 7 -50 5 -13 11 -37 14 -55 4 -17 9 -34
13 -37 4 -3 8 -14 10 -25 4 -29 35 -95 45 -95 5 0 5 -4 2 -10 -3 -5 -2 -10 4
-10 5 0 13 -9 16 -20 4 -11 11 -18 16 -15 5 3 6 -1 3 -9 -4 -11 0 -16 10 -16
9 0 16 -7 16 -16 0 -8 4 -13 8 -10 5 3 16 -6 26 -20 11 -13 25 -24 32 -24 8 0
14 -5 14 -11 0 -5 4 -8 8 -5 5 3 18 -2 28 -12 10 -9 30 -19 44 -20 14 -2 30
-7 35 -12 6 -4 27 -7 48 -6 21 1 40 -1 42 -5 3 -3 17 -5 32 -3 16 2 48 4 73 5
25 1 52 6 61 10 9 5 31 11 50 14 19 3 38 10 43 16 6 5 16 9 23 9 8 0 44 14 81
31 37 18 69 31 71 30 2 -2 7 1 10 6 3 5 26 20 51 34 25 13 47 27 50 30 3 3 34
25 70 49 36 24 70 49 76 54 7 6 29 25 49 41 55 45 124 106 160 143 18 17 36
32 39 32 4 0 27 -20 52 -45 24 -25 49 -45 54 -45 6 0 10 -6 10 -14 0 -8 8 -17
18 -20 9 -3 34 -22 55 -41 21 -19 43 -35 48 -35 6 0 8 -4 5 -8 -3 -5 7 -15 22
-23 15 -8 32 -18 39 -24 7 -5 19 -16 28 -23 8 -7 15 -10 15 -7 0 3 10 -3 22
-15 12 -11 28 -20 35 -20 7 0 13 -3 13 -8 0 -4 17 -16 38 -27 20 -11 40 -24
43 -28 3 -5 8 -8 10 -7 2 0 35 -13 73 -30 38 -18 78 -34 89 -36 10 -2 25 -8
33 -15 8 -6 14 -9 14 -6 0 3 15 1 33 -5 28 -9 100 -18 162 -20 118 -4 233 45
323 139 34 35 62 71 62 78 0 8 7 21 16 29 8 9 13 16 9 16 -3 0 1 12 9 28 19
35 28 61 33 92 2 14 8 39 13 55 13 43 22 156 20 260 -1 86 -7 214 -11 225 -1
3 -1 8 -1 12 1 3 -5 37 -13 74 -8 38 -12 70 -10 73 3 2 0 9 -5 16 -5 6 -11 30
-14 52 -2 22 -8 49 -14 60 -16 30 -8 58 17 57 11 0 21 4 21 9 0 6 3 7 7 4 3
-4 11 -3 17 2 7 6 24 12 40 15 15 3 34 10 42 17 8 6 14 9 14 5 0 -4 14 0 30 9
17 9 30 13 30 11 0 -12 315 134 330 153 3 3 19 13 35 21 17 8 35 20 42 25 6 6
43 35 81 65 65 51 145 141 177 200 49 87 55 113 55 221 0 105 -1 108 -41 188
-30 61 -61 103 -124 166 -45 47 -87 85 -93 85 -6 0 -12 3 -14 8 -3 8 -64 52
-72 52 -3 0 -29 15 -58 33 -49 30 -138 75 -198 99 -14 6 -37 17 -52 25 -16 8
-28 11 -28 7 0 -3 -6 -2 -12 3 -15 11 -73 32 -176 64 -40 12 -75 25 -77 30 -3
4 -1 18 4 31 5 14 12 42 15 62 4 21 10 57 15 79 25 112 42 265 42 382 1 91
-10 255 -17 266 -3 5 -11 33 -19 63 -14 52 -42 118 -76 176 -31 55 -161 166
-180 154 -5 -3 -9 0 -9 5 0 6 -3 10 -7 9 -5 -1 -21 4 -36 10 -31 13 -269 17
-281 5 -4 -4 -19 -9 -34 -11 -15 -2 -29 -6 -32 -10 -3 -4 -11 -8 -17 -9 -7 -2
-18 -4 -25 -5 -49 -11 -340 -175 -368 -208 -3 -3 -23 -19 -46 -35 -48 -35
-153 -126 -200 -172 -38 -39 -48 -40 -78 -10 -12 12 -48 45 -80 72 -32 28 -66
57 -75 66 -42 40 -274 199 -290 199 -5 0 -11 3 -13 8 -7 18 -258 119 -258 104
0 -3 -5 -1 -12 6 -13 13 -269 17 -282 5z m232 -164 c23 -1 42 -7 42 -13 0 -7
12 -11 27 -10 15 0 34 -6 42 -13 7 -8 20 -12 28 -9 7 3 16 -1 19 -9 4 -8 10
-12 15 -9 5 3 9 0 9 -6 0 -6 4 -9 9 -5 5 3 17 -2 25 -11 9 -8 16 -12 16 -7 0
4 5 1 10 -7 5 -8 13 -15 17 -16 16 -1 63 -27 63 -35 0 -4 16 -13 34 -20 19 -7
33 -15 31 -18 -1 -3 15 -17 36 -31 21 -13 39 -28 39 -32 0 -4 5 -8 10 -8 6 0
22 -10 35 -22 56 -54 86 -78 96 -78 5 0 7 -4 4 -10 -3 -5 -3 -10 2 -10 4 0 25
-16 47 -35 l39 -34 -39 -40 c-22 -22 -50 -54 -64 -71 -35 -44 -92 -111 -112
-132 -10 -10 -15 -18 -12 -18 3 0 -1 -6 -8 -14 -20 -21 -50 -58 -82 -101 -17
-22 -32 -42 -35 -45 -4 -3 -12 -17 -20 -32 -18 -35 -55 -49 -138 -53 -37 -2
-68 -4 -68 -5 0 -4 -45 -12 -93 -15 -29 -2 -67 -8 -85 -14 -18 -6 -52 -12 -77
-14 -25 -2 -52 -7 -60 -10 -8 -3 -28 -8 -45 -11 -16 -3 -46 -8 -66 -12 -32 -5
-37 -4 -42 17 -4 13 -7 35 -7 49 0 15 -4 30 -9 35 -5 6 -12 30 -14 55 -3 25
-8 58 -12 74 -10 48 -28 251 -27 311 1 84 18 219 31 244 5 9 7 24 6 34 -2 9 0
17 5 17 4 0 10 10 14 23 16 65 110 161 168 172 12 3 22 6 24 8 3 3 91 1 172
-4z m1830 -10 c15 -8 31 -20 35 -27 5 -7 11 -11 15 -9 9 5 71 -61 64 -68 -3
-3 -1 -5 5 -5 9 0 31 -44 30 -60 0 -3 5 -15 12 -28 19 -36 41 -144 35 -174 -1
-10 1 -18 5 -18 8 0 12 -179 4 -193 -4 -6 -12 -108 -15 -177 0 -8 -6 -21 -12
-29 -9 -12 -8 -13 3 -6 11 6 12 5 5 -6 -5 -8 -9 -17 -10 -21 -1 -5 -3 -10 -4
-13 -1 -3 -3 -17 -5 -32 -2 -33 -13 -79 -25 -110 -6 -14 -6 -23 0 -23 5 0 7
-7 4 -15 -6 -16 -59 -21 -68 -7 -2 4 -21 9 -42 10 -20 2 -41 5 -46 8 -5 3 -32
8 -61 11 -29 3 -59 9 -68 14 -9 5 -41 9 -70 10 -30 1 -58 4 -64 7 -12 7 -27 9
-125 16 -92 7 -106 15 -147 74 -36 51 -149 199 -173 225 -8 8 -33 37 -55 64
-22 26 -59 68 -82 94 -24 25 -43 50 -43 55 0 5 19 25 42 44 23 19 53 46 68 60
14 14 46 41 70 60 25 19 50 39 57 45 53 44 152 109 186 121 9 3 17 9 17 13 0
3 15 12 33 20 17 8 54 25 81 38 28 12 57 23 65 23 9 0 27 6 41 13 34 17 202
14 238 -4z m-998 -578 c0 -4 18 -26 40 -47 22 -22 40 -43 40 -47 0 -4 14 -21
30 -37 17 -17 28 -30 26 -30 -3 0 13 -19 34 -42 22 -24 40 -49 40 -56 0 -7 5
-10 10 -7 6 3 10 -1 10 -9 0 -9 5 -16 10 -16 6 0 10 -7 10 -16 0 -8 5 -12 10
-9 6 3 10 0 10 -7 0 -10 -59 -13 -298 -13 l-299 0 31 39 c73 90 193 234 225
269 31 34 71 50 71 28z m-250 -500 c0 -10 19 -9 37 2 6 4 15 3 18 -3 4 -6 16
-8 28 -4 38 12 221 12 236 0 12 -9 13 -8 6 3 -6 11 -4 13 11 7 24 -10 74 -12
96 -3 10 3 19 3 22 -1 4 -7 32 -10 157 -16 39 -2 69 -20 69 -42 0 -8 4 -14 9
-14 5 0 13 -9 16 -20 4 -11 18 -32 31 -45 14 -14 20 -25 13 -25 -7 0 -3 -8 7
-17 11 -10 28 -35 37 -55 10 -21 22 -38 28 -38 6 0 8 -4 5 -9 -3 -5 1 -14 9
-21 8 -7 15 -17 15 -23 0 -6 6 -18 14 -26 12 -15 60 -100 110 -196 12 -22 26
-43 31 -47 6 -4 7 -8 2 -8 -4 0 0 -11 9 -25 8 -13 13 -29 9 -35 -3 -5 -2 -10
4 -10 13 0 48 -71 45 -92 -2 -17 -91 -196 -122 -248 -12 -19 -31 -53 -42 -75
-12 -22 -27 -49 -33 -60 -98 -163 -131 -216 -143 -226 -8 -6 -14 -17 -14 -23
0 -7 -7 -21 -15 -31 -48 -63 -49 -64 -109 -70 -32 -3 -62 -8 -67 -11 -5 -3 -9
1 -9 8 0 10 -2 10 -8 1 -10 -15 -600 -16 -618 -1 -7 5 -16 8 -20 7 -5 -1 -25
-1 -44 0 -27 1 -39 8 -51 29 -9 15 -53 84 -98 154 -45 70 -81 132 -81 138 0 5
-4 10 -9 10 -5 0 -11 8 -14 18 -4 9 -27 53 -52 97 -25 44 -70 129 -99 188
l-54 109 51 101 c28 56 55 104 59 105 4 2 8 12 8 22 0 9 7 23 15 30 8 7 15 16
15 21 0 5 20 42 43 82 24 39 54 91 67 115 13 23 27 42 32 42 4 0 8 9 8 19 0
11 3 21 8 23 4 2 33 42 64 89 l57 86 64 0 c35 0 69 3 74 6 6 4 18 4 27 1 9 -3
16 -1 16 5 0 6 5 11 10 11 6 0 10 -4 10 -9z m-428 -40 c8 -1 -1 -33 -12 -41
-11 -9 -51 -70 -46 -70 5 0 -55 -95 -74 -117 -5 -7 -10 -17 -10 -22 0 -5 -11
-23 -25 -39 -13 -16 -22 -32 -18 -35 3 -4 0 -13 -7 -22 -16 -20 -44 -68 -71
-125 -20 -41 -22 -43 -35 -25 -8 10 -14 25 -14 32 0 13 -5 24 -28 70 -7 13
-12 32 -12 43 0 11 -4 20 -10 20 -5 0 -10 6 -10 14 0 8 -5 27 -12 43 -6 15
-12 33 -14 38 -1 6 -14 42 -27 81 -14 39 -22 75 -18 80 3 5 17 9 31 9 14 0 30
2 35 5 6 2 13 5 18 6 4 1 8 2 10 4 1 1 24 3 51 6 27 2 52 7 55 12 3 4 13 7 21
7 8 -1 23 2 32 7 10 5 19 4 23 -2 4 -6 12 -7 18 -3 7 4 21 8 32 10 32 3 54 9
60 14 4 5 14 5 57 0z m1358 -1 c0 9 4 9 13 2 6 -6 28 -13 47 -15 19 -3 35 -6
35 -7 0 0 24 -2 53 -4 30 -2 57 -7 60 -12 4 -5 26 -9 49 -9 24 0 43 -4 43 -8
0 -5 4 -6 9 -2 5 3 12 1 15 -4 4 -5 17 -8 31 -6 36 3 49 -17 36 -57 -6 -18
-11 -36 -11 -40 0 -5 -11 -33 -25 -63 -13 -31 -24 -59 -25 -63 -1 -14 -23 -77
-33 -97 -6 -11 -12 -22 -12 -25 -2 -17 -39 -100 -44 -100 -3 0 -22 33 -41 73
-19 40 -38 74 -42 75 -5 2 -8 8 -8 14 0 5 -9 23 -21 39 -11 16 -18 29 -14 29
3 0 -5 15 -19 33 -15 19 -26 37 -26 41 0 9 -53 90 -65 98 -5 4 -7 8 -2 8 8 0
-42 81 -57 91 -5 4 0 9 10 11 10 3 25 0 32 -5 8 -6 12 -5 12 3z m-1975 -120
c-3 -5 -1 -10 4 -10 6 0 10 -3 9 -7 -3 -13 43 -152 52 -158 5 -3 7 -12 4 -19
-3 -8 -1 -17 5 -21 6 -3 11 -14 11 -24 0 -10 8 -33 17 -52 10 -19 18 -39 19
-44 1 -6 12 -33 24 -60 13 -28 23 -56 23 -62 0 -7 4 -13 9 -13 4 0 8 -9 8 -20
0 -11 5 -20 10 -20 6 0 10 -9 10 -20 0 -11 5 -20 11 -20 5 0 8 -4 4 -9 -3 -5
-1 -12 4 -16 9 -5 -8 -69 -26 -98 -4 -7 -8 -14 -9 -17 -11 -37 -18 -50 -26
-50 -5 0 -7 -3 -4 -8 2 -4 -3 -23 -12 -42 -8 -19 -16 -37 -16 -40 -2 -5 -58
-152 -71 -185 -10 -24 -9 -21 -19 -62 -4 -18 -11 -33 -15 -33 -4 0 -7 -8 -8
-17 -4 -56 -13 -67 -44 -54 -13 5 -44 14 -69 21 -25 7 -57 19 -72 26 -15 8
-31 15 -35 15 -13 -1 -46 10 -103 35 -106 47 -130 59 -130 67 0 4 -7 7 -15 7
-14 0 -53 18 -65 30 -3 3 -30 21 -60 41 -100 65 -211 181 -222 230 -2 7 -8 19
-14 26 -7 7 -11 44 -10 90 1 59 7 89 24 125 31 61 173 208 202 208 6 0 10 5
10 10 0 6 7 10 15 10 8 0 15 3 15 8 0 4 10 12 23 18 12 7 56 30 98 52 73 38
223 102 244 103 6 1 19 6 30 12 11 6 25 12 30 13 74 17 115 30 115 36 0 5 5 8
11 8 5 0 7 -4 4 -10z m2570 -9 c-2 -5 9 -7 25 -6 17 1 30 -2 30 -7 0 -5 5 -6
10 -3 6 3 10 2 10 -3 0 -6 9 -8 20 -5 11 3 20 0 20 -6 0 -6 8 -11 18 -11 10 0
22 -3 26 -7 3 -4 16 -8 28 -10 12 -2 26 -9 30 -16 4 -6 8 -9 8 -4 0 4 13 1 29
-7 16 -9 31 -12 35 -9 3 4 6 1 6 -5 0 -7 3 -11 8 -10 10 3 126 -54 130 -64 2
-5 8 -6 13 -2 5 3 9 0 9 -5 0 -6 3 -10 8 -9 10 2 72 -36 72 -45 0 -5 4 -6 8
-3 5 3 24 -9 44 -27 19 -18 43 -37 54 -43 10 -6 25 -22 31 -35 7 -13 13 -20
13 -14 0 11 69 -66 70 -77 0 -4 7 -14 16 -22 10 -11 11 -16 3 -16 -8 0 -6 -7
6 -20 30 -33 25 -151 -9 -219 -29 -57 -196 -230 -196 -204 0 4 -4 3 -8 -4 -13
-20 -172 -108 -269 -149 -24 -10 -43 -22 -43 -27 0 -4 -4 -6 -9 -3 -8 5 -53
-9 -106 -34 -11 -6 -45 -16 -75 -24 -30 -8 -65 -18 -77 -22 -19 -5 -23 -2 -23
14 0 12 -5 24 -10 27 -6 4 -8 10 -6 14 5 7 -16 71 -52 161 -5 14 -11 30 -12
35 -2 6 -9 23 -16 40 -7 16 -10 33 -8 37 3 5 1 8 -5 8 -5 0 -12 13 -16 30 -4
16 -11 32 -16 35 -5 4 -9 14 -9 23 0 9 -15 47 -33 83 -18 37 -32 77 -32 90 1
13 16 56 34 94 18 39 35 77 36 85 2 8 13 35 25 59 12 25 23 50 25 55 1 6 5 20
9 31 5 11 12 32 18 47 6 15 8 29 7 31 -2 1 4 15 14 30 9 15 15 27 13 27 -7 0
32 111 45 126 12 14 33 9 24 -5z m-2204 -856 c18 -36 36 -65 41 -65 4 0 8 -8
8 -18 0 -10 8 -29 17 -42 10 -14 18 -31 20 -39 1 -8 8 -18 15 -22 7 -5 9 -9 4
-9 -6 0 -1 -6 9 -14 10 -7 20 -22 21 -32 2 -10 8 -20 13 -22 6 -2 11 -10 11
-18 0 -8 5 -14 11 -14 5 0 7 -5 4 -10 -3 -6 0 -13 9 -16 8 -3 18 -19 21 -35 4
-16 16 -37 28 -47 47 -38 19 -47 -88 -27 -16 3 -50 8 -74 10 -24 3 -52 7 -62
10 -19 6 -36 10 -100 19 -20 3 -47 10 -60 15 -13 5 -28 10 -34 12 -15 6 -2 64
26 121 5 10 9 26 9 36 0 10 4 22 8 27 5 6 17 33 26 60 10 28 21 59 26 70 40
91 51 115 54 115 2 0 19 -29 37 -65z m1860 51 c-1 -4 6 -20 15 -37 8 -17 17
-40 20 -52 2 -11 9 -24 15 -28 7 -4 9 -14 6 -22 -3 -9 -2 -17 4 -19 5 -2 11
-14 14 -28 2 -14 9 -34 14 -45 20 -44 40 -105 35 -105 -4 0 -2 -6 4 -12 5 -7
13 -27 16 -43 6 -28 4 -31 -20 -33 -14 -1 -31 -5 -37 -9 -13 -8 -35 -12 -82
-16 -17 -2 -36 -6 -43 -10 -6 -5 -39 -10 -71 -11 -32 -2 -63 -6 -69 -10 -5 -3
-38 -8 -72 -10 -61 -5 -61 -5 -46 17 27 40 171 280 186 311 8 17 17 33 20 36
3 3 12 19 20 35 26 53 61 107 67 102 2 -3 4 -8 4 -11z m-2021 -598 c53 -11 73
-16 80 -18 3 -1 12 -2 21 -1 8 1 39 -5 69 -12 29 -8 68 -13 87 -12 18 1 33 -2
33 -5 0 -4 6 -7 13 -7 6 -1 39 -4 72 -7 150 -14 162 -17 191 -47 15 -16 24
-29 19 -29 -4 0 4 -11 19 -25 15 -14 24 -25 21 -25 -3 0 6 -12 20 -27 14 -16
28 -36 31 -46 3 -9 10 -15 15 -12 5 4 9 1 9 -5 0 -6 5 -16 10 -23 6 -7 24 -27
40 -46 16 -19 27 -38 23 -44 -3 -6 -1 -7 5 -3 6 3 21 -8 33 -26 13 -18 35 -45
51 -60 15 -16 25 -28 23 -28 -3 0 7 -13 22 -28 15 -16 32 -26 36 -24 16 8 -16
-43 -42 -68 -14 -14 -49 -43 -76 -65 -28 -22 -56 -48 -63 -57 -7 -10 -18 -18
-23 -18 -6 0 -24 -13 -42 -30 -18 -16 -36 -30 -40 -30 -4 0 -17 -8 -28 -18
-10 -11 -32 -25 -47 -33 -15 -8 -29 -17 -32 -20 -8 -10 -193 -96 -230 -107
-73 -23 -193 -36 -215 -23 -5 3 -21 7 -34 9 -66 9 -154 102 -185 197 -9 28
-19 57 -23 65 -3 8 -7 31 -8 50 -2 19 -6 48 -10 65 -11 51 -8 275 5 275 3 0 5
21 6 48 0 26 4 65 7 87 4 22 9 56 12 75 7 48 25 119 37 153 8 20 15 26 27 21
9 -3 36 -11 61 -16z m2221 5 c1 -10 1 -21 0 -25 0 -5 3 -8 8 -8 5 0 8 -8 6
-17 -1 -10 2 -29 7 -43 6 -14 12 -45 14 -70 3 -25 7 -52 11 -60 8 -20 11 -46
14 -105 1 -27 7 -53 13 -57 7 -5 6 -8 -4 -8 -13 0 -13 -2 -1 -9 12 -8 12 -12
2 -25 -8 -9 -9 -16 -4 -16 16 0 16 -139 1 -158 -11 -13 -11 -14 2 -7 13 7 13
6 2 -7 -9 -11 -10 -18 -2 -23 6 -3 7 -12 3 -18 -4 -7 -8 -20 -9 -29 -1 -10 -3
-21 -4 -25 -1 -5 -3 -17 -5 -28 -4 -38 -18 -85 -26 -91 -5 -3 -7 -10 -4 -15 4
-5 1 -9 -5 -9 -6 0 -9 -4 -6 -9 10 -15 -52 -96 -99 -130 -25 -18 -60 -34 -78
-36 -17 -2 -32 -4 -32 -5 0 -15 -161 2 -197 21 -10 5 -25 9 -33 9 -8 0 -23 4
-33 9 -9 5 -42 21 -72 37 -85 43 -124 65 -141 80 -8 8 -21 14 -27 14 -7 0 -12
5 -12 10 0 6 -6 10 -14 10 -8 0 -16 4 -18 8 -1 4 -30 28 -63 54 -65 50 -81 63
-167 141 -62 55 -65 59 -45 79 7 7 53 60 102 118 49 58 93 107 97 108 5 2 8 8
8 14 0 5 19 33 43 61 23 28 47 57 52 65 6 7 18 22 28 33 9 10 17 23 17 27 0 5
11 19 25 32 14 13 25 20 25 16 0 -5 7 -3 15 4 12 10 15 10 15 -1 0 -10 2 -11
8 -2 4 7 16 12 27 12 66 1 135 7 135 11 0 3 8 6 18 7 79 8 104 11 152 21 30 7
69 14 85 16 17 2 37 6 45 9 8 3 32 8 53 10 21 3 41 8 44 11 12 11 23 6 24 -11z
m-1332 -108 c20 -1 38 -3 41 -4 20 -7 296 2 298 9 2 6 11 6 20 2 15 -7 38 -8
52 -2 3 1 19 2 36 3 22 1 30 -2 27 -10 -3 -7 -10 -13 -16 -13 -6 0 -8 -3 -4
-6 3 -4 1 -12 -6 -19 -14 -15 -30 -35 -77 -95 -19 -25 -39 -50 -45 -56 -15
-16 -101 -116 -122 -142 l-18 -24 -25 24 c-14 13 -47 50 -75 82 -50 58 -71 83
-103 121 -10 11 -31 38 -47 60 -17 22 -36 46 -42 53 -18 19 -16 21 12 17 14
-1 28 2 31 7 3 4 10 5 16 2 6 -4 27 -8 47 -9z"/>
<path d="M2215 2580 c-3 -4 -17 -10 -33 -13 -39 -8 -128 -76 -149 -114 -10
-18 -21 -33 -26 -33 -4 0 -6 -4 -2 -9 3 -5 1 -12 -4 -15 -5 -3 -12 -22 -15
-42 -4 -19 -10 -43 -13 -51 -5 -11 -3 -14 6 -8 10 6 11 3 3 -11 -10 -19 -5
-74 7 -74 3 0 7 -12 8 -27 0 -15 6 -29 12 -31 6 -2 11 -10 11 -17 0 -17 89
-107 99 -100 4 2 13 -4 21 -15 7 -10 19 -16 27 -13 7 3 20 0 27 -7 8 -6 44
-11 80 -11 166 0 305 141 302 306 -1 28 -5 56 -9 63 -5 7 -11 24 -13 38 -3 15
-10 32 -17 40 -28 31 -37 44 -37 51 0 13 -107 83 -127 83 -11 0 -23 3 -27 8
-10 9 -125 11 -131 2z"/>
</g>
</svg>
