<?xml version="1.0" standalone="no"?>
<!DOCTYPE svg PUBLIC "-//W3C//DTD SVG 20010904//EN"
 "http://www.w3.org/TR/2001/REC-SVG-20010904/DTD/svg10.dtd">
<svg version="1.0" xmlns="http://www.w3.org/2000/svg"
 width="221.000000pt" height="221.000000pt" viewBox="0 0 221.000000 221.000000"
 preserveAspectRatio="xMidYMid meet">
<metadata>
Created by potrace 1.14, written by Peter Selinger 2001-2017
</metadata>
<g transform="translate(0.000000,221.000000) scale(0.100000,-0.100000)"
fill="#000000" stroke="none">
<path d="M590 2055 c-92 -42 -139 -132 -147 -280 -5 -81 13 -237 32 -287 5
-13 -14 -23 -87 -47 -161 -54 -295 -148 -337 -236 -77 -163 47 -323 329 -422
77 -28 100 -40 95 -51 -19 -50 -37 -206 -32 -287 14 -265 167 -359 400 -247
74 35 211 133 246 175 12 16 17 14 55 -21 166 -153 349 -229 461 -192 98 32
154 130 162 285 5 81 -13 237 -32 287 -5 13 14 23 87 47 224 75 358 198 358
331 0 133 -134 256 -358 331 -73 24 -92 34 -87 47 19 50 37 206 32 287 -14
265 -167 359 -400 247 -74 -35 -211 -133 -246 -175 -12 -16 -17 -14 -55 21
-129 119 -268 192 -374 199 -47 2 -78 -1 -102 -12z m223 -118 c40 -20 107 -65
149 -101 l77 -66 -91 -114 -92 -114 -85 -12 c-47 -7 -112 -18 -143 -25 l-58
-12 -10 36 c-54 207 -29 391 60 439 39 20 112 9 193 -31z m799 17 c70 -62 86
-244 38 -425 l-10 -36 -58 12 c-31 7 -96 18 -143 25 l-85 12 -92 114 -91 114
67 58 c79 67 124 97 201 129 66 28 139 27 173 -3z m-442 -329 l61 -75 -126 0
-126 0 61 75 c34 41 63 75 65 75 2 0 31 -34 65 -75z m87 -171 l51 -7 75 -126
c41 -69 84 -145 96 -168 l21 -43 -21 -42 c-12 -24 -55 -100 -96 -169 l-75
-126 -51 -7 c-67 -8 -237 -8 -304 0 l-51 7 -75 126 c-41 69 -84 145 -96 169
l-21 42 21 43 c12 23 55 99 96 169 73 122 77 127 112 131 63 7 264 7 318 1z
m-480 -27 c-2 -7 -29 -56 -59 -109 -55 -97 -55 -97 -68 -70 -18 40 -50 133
-50 148 0 7 30 18 78 27 99 19 105 19 99 4z m771 -8 c35 -7 62 -17 62 -24 0
-14 -32 -108 -50 -147 -13 -27 -13 -27 -68 70 -72 128 -71 125 -36 119 16 -4
57 -12 92 -18z m-1024 -95 c10 -31 33 -92 51 -135 l34 -79 -34 -79 c-18 -43
-41 -104 -51 -135 -10 -31 -21 -56 -24 -56 -16 0 -149 49 -190 70 -251 127
-251 273 0 400 45 23 166 68 186 69 6 1 18 -24 28 -55z m1262 32 c186 -63 304
-159 304 -246 0 -66 -69 -139 -190 -200 -41 -21 -174 -70 -190 -70 -3 0 -14
25 -24 56 -10 31 -33 92 -51 135 l-34 79 34 79 c18 43 41 104 51 135 10 31 21
56 24 56 4 0 38 -11 76 -24z m-1008 -572 c-10 -9 -178 29 -178 41 0 14 32 108
50 147 13 27 13 27 72 -78 33 -58 58 -107 56 -110z m813 108 c10 -30 19 -61
19 -67 0 -12 -168 -50 -177 -41 -3 2 22 51 54 109 66 119 63 119 104 -1z
m-820 -202 l85 -12 92 -114 91 -114 -77 -66 c-103 -88 -207 -139 -283 -139
-67 0 -92 17 -121 83 -35 77 -34 228 2 363 l10 36 58 -12 c31 -7 96 -18 143
-25z m895 -81 c27 -156 5 -290 -56 -344 -17 -15 -36 -20 -79 -20 -76 0 -180
51 -283 139 l-77 66 91 114 92 114 85 12 c47 7 111 17 141 24 42 9 57 9 62 0
4 -6 15 -54 24 -105z m-496 -14 c-34 -41 -63 -75 -65 -75 -2 0 -31 34 -65 75
l-61 75 126 0 126 0 -61 -75z"/>
<path d="M1018 1280 c-135 -72 -133 -271 2 -340 141 -72 303 57 268 212 -26
120 -163 184 -270 128z"/>
</g>
</svg>
